<svg xmlns="http://www.w3.org/2000/svg" xmlns:xlink="http://www.w3.org/1999/xlink" viewBox="0 0 2005 1000"><defs><linearGradient id="a" x1="1002" x2="1002" y1="635" y2="41" gradientUnits="userSpaceOnUse"><stop offset="0" stop-color="#ffeb3b"/><stop offset="1" stop-color="#ff6f00"/></linearGradient><linearGradient id="b" x1="726" x2="953" y1="355" y2="173" gradientUnits="userSpaceOnUse"><stop offset="0" stop-color="#03a9f4"/><stop offset="1" stop-color="#0277bd"/></linearGradient><linearGradient id="c" x1="906" x2="1214" y1="98" y2="98" xlink:href="#a"/><linearGradient id="d" x1="1055" x2="1055" y1="458" y2="-116" xlink:href="#a"/></defs><path fill="#161616" d="M179 717l32-158h36l-48 210h-35l-40-153-41 153H48L0 559h36l33 158 40-158h30zm146 2l32-106h37l-62 179q-14 40-48 40a63 63 0 0 1-17-3v-27h6q14 0 20-5t11-16l5-13-55-155h38zm140-17l-16 16v51h-35V548h35v127l11-14 43-48h42l-58 65 64 91h-40zm96-13q0-22 10-41t25-28q16-10 38-10 31 0 51 20t21 54v8q0 23-9 42a66 66 0 0 1-25 28q-16 10-38 10-33 0-53-22t-20-59zm35 4q0 24 10 37t28 14q18 0 28-14t9-41q0-23-10-37t-27-14q-17 0-27 14t-11 41zm276 0q0 36-16 57t-44 22q-26 0-41-17v74h-35V613h32l2 16q15-19 42-19 28 0 44 22t17 59zm-35-4q0-23-9-37t-26-13q-22 0-31 18v69q9 18 31 18 17 0 26-14t9-40zm189-130l60 161 61-161h47v210h-36v-69l3-93-62 162h-26l-62-162 4 93v69h-36V559zm201 131q0-23 9-42t26-28q16-10 37-10 32 0 51 20t22 54v8q0 23-9 42a66 66 0 0 1-25 28q-17 10-38 10-33 0-53-22t-20-59zm35 3q0 24 10 37t27 14q18 0 28-14t10-41q0-23-10-37t-28-14q-17 0-27 14t-10 41zm276-1q0 37-16 58t-45 22q-27 0-42-20l-2 17h-32V548h35v80q16-18 41-18 29 0 45 21t16 59zm-35-3q0-25-9-38t-26-12q-22 0-32 20v64q10 20 33 20 16 0 25-12t9-37zm64-116a19 19 0 0 1 5-14q6-5 15-5t15 5a18 18 0 0 1 5 14 18 18 0 0 1-5 13q-5 5-15 5t-15-5a18 18 0 0 1-5-13zm37 196h-35V613h35zm76 0h-35V548h35zm71-156l1 18q17-21 45-21 49 0 49 56v103h-35V668q0-15-6-22t-21-7q-21 0-32 19v111h-34V613zm185 106l32-106h37l-62 179q-14 40-48 40a63 63 0 0 1-17-3v-27h7q13 0 20-5t10-16l5-13-54-155h37zM543 947h-20v51h-26V862h45a73 73 0 0 1 21 3 45 45 0 0 1 15 8 34 34 0 0 1 10 13 42 42 0 0 1 4 17 46 46 0 0 1-2 13 35 35 0 0 1-13 19 51 51 0 0 1-10 6l29 56v1h-28zm-20-21h19q11 0 17-5t6-16q0-10-6-16t-17-5h-19zm138 74a56 56 0 0 1-21-4 50 50 0 0 1-16-10 45 45 0 0 1-11-16 49 49 0 0 1-3-19v-4a59 59 0 0 1 3-21 49 49 0 0 1 10-16 46 46 0 0 1 16-11 49 49 0 0 1 19-4 50 50 0 0 1 20 4 40 40 0 0 1 14 10 44 44 0 0 1 9 16 64 64 0 0 1 3 20v11h-68a28 28 0 0 0 3 9 26 26 0 0 0 14 12 29 29 0 0 0 10 2 40 40 0 0 0 7-1 37 37 0 0 0 8-2 33 33 0 0 0 6-3 25 25 0 0 0 5-5l13 14a37 37 0 0 1-6 6 43 43 0 0 1-9 6 58 58 0 0 1-26 6zm-3-84a20 20 0 0 0-8 2 19 19 0 0 0-6 4 25 25 0 0 0-5 7 38 38 0 0 0-3 9h43v-2a24 24 0 0 0-2-8 18 18 0 0 0-4-6 19 19 0 0 0-6-4 23 23 0 0 0-9-2zm134 54a8 8 0 0 0-1-4 10 10 0 0 0-4-3 35 35 0 0 0-7-3l-12-3a112 112 0 0 1-16-4 51 51 0 0 1-12-7 29 29 0 0 1-9-8 22 22 0 0 1-3-12 25 25 0 0 1 3-12 30 30 0 0 1 9-10 44 44 0 0 1 14-6 60 60 0 0 1 18-3 67 67 0 0 1 19 3 45 45 0 0 1 14 6 30 30 0 0 1 9 11 28 28 0 0 1 3 13h-26a12 12 0 0 0-5-10q-5-4-14-4t-14 3-5 8a9 9 0 0 0 1 4 9 9 0 0 0 4 4 26 26 0 0 0 6 3 72 72 0 0 0 11 2 137 137 0 0 1 17 4 52 52 0 0 1 13 6 28 28 0 0 1 9 8 24 24 0 0 1 3 13 25 25 0 0 1-3 12 30 30 0 0 1-9 10 46 46 0 0 1-14 7 71 71 0 0 1-19 2 62 62 0 0 1-20-3 47 47 0 0 1-15-8 33 33 0 0 1-9-11 27 27 0 0 1-3-12h25a14 14 0 0 0 2 7 15 15 0 0 0 5 5 23 23 0 0 0 7 2 39 39 0 0 0 8 1q10 0 15-3t5-8zm46-23a63 63 0 0 1 3-21 47 47 0 0 1 10-16 43 43 0 0 1 14-11 54 54 0 0 1 41 0 43 43 0 0 1 15 11 47 47 0 0 1 9 16 63 63 0 0 1 3 21v2a64 64 0 0 1-3 20 47 47 0 0 1-9 16 42 42 0 0 1-15 11 50 50 0 0 1-20 4 50 50 0 0 1-20-4 42 42 0 0 1-15-11 47 47 0 0 1-10-16 63 63 0 0 1-3-20zm26 2a55 55 0 0 0 1 12 30 30 0 0 0 4 9 19 19 0 0 0 17 9 19 19 0 0 0 10-2 19 19 0 0 0 6-7 31 31 0 0 0 4-9 55 55 0 0 0 1-12v-2a54 54 0 0 0-1-12 31 31 0 0 0-4-10 19 19 0 0 0-6-6 19 19 0 0 0-27 6 31 31 0 0 0-4 10 54 54 0 0 0-1 12zm157 35a39 39 0 0 1-13 12 31 31 0 0 1-16 4 41 41 0 0 1-14-2 28 28 0 0 1-11-8 36 36 0 0 1-8-14 66 66 0 0 1-2-19v-60h26v60a51 51 0 0 0 1 10 17 17 0 0 0 3 7 11 11 0 0 0 5 4 24 24 0 0 0 8 1q7 0 12-3a19 19 0 0 0 8-8v-71h26v101h-24zm123-89a71 71 0 0 1 10 1 63 63 0 0 1 8 2l-3 26a94 94 0 0 0-21-3q-11 0-18 4a25 25 0 0 0-9 12v61h-26V897h24l1 17a46 46 0 0 1 15-14 37 37 0 0 1 18-5zm86 84a24 24 0 0 0 7-1 19 19 0 0 0 6-3 14 14 0 0 0 5-5 13 13 0 0 0 1-6h24a30 30 0 0 1-3 14 36 36 0 0 1-9 12 45 45 0 0 1-14 7 49 49 0 0 1-16 3 50 50 0 0 1-21-4 41 41 0 0 1-15-11 47 47 0 0 1-9-16 63 63 0 0 1-3-20v-3a64 64 0 0 1 3-19 46 46 0 0 1 9-17 43 43 0 0 1 15-11 49 49 0 0 1 20-4 52 52 0 0 1 18 3 41 41 0 0 1 13 8 35 35 0 0 1 9 12 38 38 0 0 1 3 17h-24a17 17 0 0 0-1-7 16 16 0 0 0-4-6 19 19 0 0 0-6-4 20 20 0 0 0-8-2 19 19 0 0 0-10 3 19 19 0 0 0-7 7 30 30 0 0 0-3 9 63 63 0 0 0-1 11v3a67 67 0 0 0 1 11 29 29 0 0 0 3 10 19 19 0 0 0 7 7 19 19 0 0 0 10 2zm119 21a56 56 0 0 1-21-4 50 50 0 0 1-17-10 46 46 0 0 1-10-16 49 49 0 0 1-4-19v-4a59 59 0 0 1 4-21 49 49 0 0 1 10-16 46 46 0 0 1 16-11 49 49 0 0 1 19-4 50 50 0 0 1 20 4 40 40 0 0 1 14 10 44 44 0 0 1 9 16 64 64 0 0 1 3 20v11h-68a28 28 0 0 0 3 9 26 26 0 0 0 14 12 29 29 0 0 0 10 2 40 40 0 0 0 7-1 37 37 0 0 0 7-2 32 32 0 0 0 7-3 25 25 0 0 0 5-5l13 14a37 37 0 0 1-6 6 43 43 0 0 1-9 6 59 59 0 0 1-12 4 58 58 0 0 1-14 2zm-3-84a20 20 0 0 0-8 2 19 19 0 0 0-6 4 25 25 0 0 0-5 7 37 37 0 0 0-3 9h43v-2a25 25 0 0 0-2-8 18 18 0 0 0-4-6 19 19 0 0 0-6-4 23 23 0 0 0-9-2zm134 54a8 8 0 0 0-1-4 10 10 0 0 0-4-3 35 35 0 0 0-7-3l-12-3a112 112 0 0 1-16-4 51 51 0 0 1-13-7 29 29 0 0 1-8-8 22 22 0 0 1-3-12 25 25 0 0 1 3-12 30 30 0 0 1 9-10 44 44 0 0 1 13-6 60 60 0 0 1 19-3 67 67 0 0 1 18 3 45 45 0 0 1 15 6 30 30 0 0 1 9 11 28 28 0 0 1 3 13h-26a12 12 0 0 0-5-10q-5-4-14-4t-14 3-5 8a9 9 0 0 0 1 4 9 9 0 0 0 4 4 26 26 0 0 0 6 3 72 72 0 0 0 10 2 137 137 0 0 1 17 4 52 52 0 0 1 14 6 28 28 0 0 1 9 8 24 24 0 0 1 3 13 25 25 0 0 1-3 12 30 30 0 0 1-9 10 46 46 0 0 1-15 6 71 71 0 0 1-18 3 62 62 0 0 1-20-3 47 47 0 0 1-15-8 33 33 0 0 1-9-11 27 27 0 0 1-3-12h25a14 14 0 0 0 2 7 15 15 0 0 0 5 5 23 23 0 0 0 7 2 39 39 0 0 0 8 1q10 0 15-3t5-8z"/><path fill="url(#a)" d="M1197 91H990l-53-52H806a52 52 0 0 0-52 52v313a52 52 0 0 0 52 52h404a39 39 0 0 0 40-39V143a52 52 0 0 0-53-52z"/><path fill="url(#b)" d="M894 109h-9a174 174 0 0 0-62 336z"/><path fill="#fff" d="M1060 0a166 166 0 0 0-166 166v16h332v-16A166 166 0 0 0 1060 0z"/><path fill="url(#c)" d="M1214 182v-15a154 154 0 0 0-308 0v15z"/><path fill="#fff" d="M1029 101l48-23 16 32-38 18 12 15 34-16 15 32-40 19z"/><path fill="#212121" d="M837 149a23 23 0 0 1 13-29l145-54 72 34 29 77-235 37z"/><path fill="#ffa000" d="M995 72l68 31 26 69-224 36-23-61a17 17 0 0 1 10-22l143-53m0-11l-146 54a28 28 0 0 0-17 36l26 68 245-38-32-85-76-35z"/><path fill="#ffa000" d="M975 157l42-16 5 12-15 5 8 20h-16l-6-15-14 5z"/><path fill="#fff" d="M857 265l-13-26 18-9zm-6 35l-25-52-33 16 48 101z"/><path fill="url(#d)" d="M1252 169H901c-24 0-47 19-51 43l-44 244h414c24 0 47-18 50-43l33-182c7-32-18-62-51-62z"/><path fill="#fff" d="M1164 260l-30 105H994l29-105h35l-24 87h18l24-87h35l-25 87h19l24-87z"/></svg>
